<svg width="2787" height="1162" viewBox="0 0 2787 1162" fill="none" xmlns="http://www.w3.org/2000/svg">
  <g clip-path="url(#clip0_1581_73536)">
    <path d="M273.088 584.8c284.187 49.613 446.261-181.549 572.126 92.755 37.404 82.125 57.221 157.143 106.497 214.112 139.649 161.613 342.099-68.989 476.679 67.052 86.16 86.961 202.57 240.291 410.38 175.161 106.62-34.13 163.96-125.22 236.12-234.074 151.83-227.536 364.08-169.277 569.49-383.147 174.93-183.142 180.51-425.1855 38.36-579.373-163.12-177.305-368.07-151.41-632.79-192.488-233.95-36.413-259.75-274.27-441.33-479.007-125.17-141.338-296.31-148.815-460.8-78.831-215.078 91.7-315.402 238.206-441.826 409.444C566.427-214.372 420.664-192.29 288.548-145.39-118.465-3.4504-33.0731 530.967 273.088 584.8Z" fill="url(#paint0_linear_1581_73536)"/>
  </g>
  <defs>
    <linearGradient id="paint0_linear_1581_73536" x1="2905.91" y1="96.5891" x2="-53.6483" y2="640.177" gradientUnits="userSpaceOnUse">
      <stop stop-color="#35EDFD"/>
      <stop offset="1" stop-color=" #f2726a"/>
    </linearGradient>
    <clipPath id="clip0_1581_73536">
      <path fill="#fff" d="M0 0h2787v1162H0z"/>
    </clipPath>
  </defs>
</svg>
